Coordinates
version=1
nRows=12
nColumns=34
inDegrees=yes

Units are S.I. units (second, meters, Newtons, ...)
If the header above contains a line with 'inDegrees', this indicates whether rotational values are in degrees (yes) or radians (no).

endheader
time	pelvis_tilt	pelvis_list	pelvis_rotation	pelvis_tx	pelvis_ty	pelvis_tz	hip_flexion_r	hip_adduction_r	hip_rotation_r	knee_angle_r	ankle_angle_r	subtalar_angle_r	mtp_angle_r	hip_flexion_l	hip_adduction_l	hip_rotation_l	knee_angle_l	ankle_angle_l	subtalar_angle_l	mtp_angle_l	lumbar_extension	lumbar_bending	lumbar_rotation	arm_flex_r	arm_add_r	arm_rot_r	elbow_flex_r	pro_sup_r	arm_flex_l	arm_add_l	arm_rot_l	elbow_flex_l	pro_sup_l
      8.85833330	      0.60945058	     -7.59704321	   -177.70965502	      0.06320719	      1.11885382	      0.16868774	     28.29190501	     -4.78428558	     -4.13026367	     10.47144929	    -11.20643654	      6.43614265	      0.00000000	    -15.81469980	      7.52126951	     -0.11884723	     49.60275360	    -15.35175833	    -21.80978723	      0.00000000	    -13.01959241	    -11.31742645	    -22.28169378	    -31.22322401	    -13.02900870	     -3.20113404	    101.21742778	     93.90443511	     20.87268236	    -25.68927125	     23.84593225	    103.94514237	     75.73346671
      8.86666670	      0.17147233	     -7.50444638	   -177.57009701	      0.06235401	      1.11623591	      0.16933619	     27.49499558	     -4.70145109	     -4.14956538	     10.02880993	    -12.42529373	      6.87051979	      0.00000000	    -15.23695918	      7.32687315	      0.50187513	     54.18685483	    -15.74853002	    -23.24760532	      0.00000000	    -13.40271601	    -10.85945859	    -21.91289980	    -30.91126653	    -12.93703427	     -3.54407646	    101.69953710	     94.13218360	     20.67952299	    -25.44106138	     24.79085746	    103.89437758	     75.47884150
      8.87500000	     -0.23955368	     -7.45155452	   -177.54609170	      0.06153342	      1.11236917	      0.16973272	     26.75130811	     -4.62682776	     -4.36753165	     10.17431303	    -13.78216377	      7.11006417	      0.00000000	    -14.48352956	      7.08930937	      0.85432740	     58.97772138	    -16.37039053	    -24.30063866	      0.00000000	    -13.82485385	    -10.49941726	    -21.40714557	    -30.39588176	    -12.85126544	     -3.73865375	    101.94290324	     94.28818945	     20.36208911	    -25.11510722	     25.35365249	    103.68067555	     75.32626700
      8.88333330	     -0.65079969	     -7.41129075	   -177.53159929	      0.06107097	      1.10718277	      0.16981670	     25.94160310	     -4.58879482	     -4.66377307	     10.76111494	    -14.68722352	      7.01553634	      0.00000000	    -13.56356935	      6.85293706	      1.25892202	     63.96529489	    -17.36431532	    -25.50403822	      0.00000000	    -14.31769225	    -10.08972594	    -20.80306938	    -29.76022078	    -12.74117751	     -3.90853744	    102.18658408	     94.48324621	     19.99904241	    -24.79797679	     25.83890064	    103.19485255	     75.16434306
      8.89166670	     -1.03302046	     -7.36227713	   -177.59540637	      0.06096139	      1.10013411	      0.16985787	     25.19406557	     -4.52312177	     -4.96471194	     11.87178223	    -14.92810922	      6.60087036	      0.00000000	    -12.41633499	      6.54761107	      1.42959704	     69.17864149	    -18.20677231	    -26.60353498	      0.00000000	    -14.85010490	     -9.66399309	    -20.04464181	    -28.98965379	    -12.68041237	     -3.99116821	    102.42029873	     94.68570837	     19.63610655	    -24.47403855	     26.14105420	    102.52449836	     75.02865146
      8.90000000	     -1.41249747	     -7.10687889	   -177.85419580	      0.06121091	      1.09146767	      0.16983304	     24.64378692	     -4.18414834	     -5.03379777	     13.65662969	    -13.86827240	      5.70739000	      0.00000000	    -11.14102649	      6.01661705	      1.29172269	     74.47983845	    -18.81695677	    -27.56741963	      0.00000000	    -15.36461441	     -9.00164173	    -18.98383092	    -28.05246896	    -12.77902348	     -4.00861183	    102.65578122	     94.89361320	     19.17002958	    -24.16561125	     26.29106050	    101.71921059	     74.92781566
      8.90833330	     -1.82387282	     -6.72129004	   -178.17138846	      0.06225503	      1.08172732	      0.16958390	     24.25239007	     -3.65841017	     -4.96420894	     16.09506899	    -11.70573785	      4.44067854	      0.00000000	     -9.71943372	      5.28977471	      0.93934845	     79.89655946	    -18.99134099	    -28.19141172	      0.00000000	    -16.07377981	     -8.25627656	    -17.82348869	    -26.79694475	    -12.90647129	     -4.00856790	    102.89291279	     95.00167780	     18.74067082	    -24.03951342	     26.30553957	    101.05178448	     74.89364911
      8.91666670	     -1.74845681	     -6.02921136	   -178.60296738	      0.06338171	      1.07007989	      0.16968073	     24.70436597	     -2.66236728	     -4.18351014	     19.37774427	     -8.79554757	      2.08177321	      0.00000000	     -7.68916493	      4.28532579	      0.41634765	     85.37722837	    -18.86866931	    -28.63633356	      0.00000000	    -15.98865904	     -7.19667794	    -16.12731114	    -26.01909869	    -13.53562050	     -3.87781212	    103.61520138	     95.33433595	     17.76774444	    -23.73188111	     26.11830199	     99.78075026	     74.89442434
      8.92500000	     -1.64537463	     -5.46665619	   -178.94318302	      0.06506267	      1.05867052	      0.16972978	     25.39552439	     -1.73110395	     -3.28394777	     23.33768642	     -5.33469788	     -0.38607623	      0.00000000	     -5.49493777	      3.35354660	      0.07136301	     90.75279984	    -18.11830694	    -28.22133132	      0.00000000	    -15.98848864	     -6.34665092	    -14.49546986	    -25.09512336	    -14.03344165	     -3.93139956	    104.18303647	     95.64945006	     16.61644782	    -23.87423979	     25.92877532	     98.90730780	     75.02914613
      8.93333330	     -1.31637912	     -4.98082888	   -179.12540077	      0.06674364	      1.04856041	      0.16956428	     26.33830719	     -0.81673569	     -2.42830761	     27.56610321	     -1.74376415	     -2.95571105	      0.00000000	     -2.90296759	      2.44040476	     -0.02876639	     95.81016032	    -16.95710744	    -27.39501586	      0.00000000	    -15.76928535	     -5.71084157	    -13.01489507	    -24.05561304	    -14.62779526	     -3.90883409	    104.57951911	     96.01100057	     15.51932720	    -24.01831852	     25.42054237	     97.52890652	     75.31089708
      8.94166670	     -0.90297209	     -4.65237767	   -179.15924405	      0.06850269	      1.03987120	      0.16929674	     27.22297909	     -0.06197434	     -1.73767493	     31.72420613	      1.34807957	     -5.53283218	      0.00000000	     -0.19859253	      1.68139085	      0.12317448	    100.35425237	    -15.73939019	    -26.19296185	      0.00000000	    -15.37317894	     -5.26405100	    -11.45920051	    -23.11037477	    -15.17656651	     -3.93196051	    104.82928851	     96.34394137	     13.67837794	    -24.59295944	     25.04908807	     96.38566534	     75.77282775
      8.95000000	     -0.44671374	     -4.31412138	   -179.09363754	      0.07022751	      1.03310676	      0.16879433	     27.88079128	      0.72283680	     -1.07486824	     35.48170874	      3.85912813	     -8.10247420	      0.00000000	      2.63395557	      0.87601592	      0.44571290	    104.25296708	    -14.57619097	    -25.11476275	      0.00000000	    -14.94386260	     -4.83406171	     -9.92003462	    -22.10209492	    -15.69008530	     -3.95249137	    104.74875146	     96.65662693	     11.35531667	    -25.26843723	     24.46275520	     95.27501969	     76.40408622
